<svg width="613" height="842" viewBox="0 0 613 842" fill="none" xmlns="http://www.w3.org/2000/svg">
<g clip-path="url(#clip0)">
<path fill-rule="evenodd" clip-rule="evenodd" d="M245 13.5L500 151.543V227H495.709V154.096L245.097 18.4292L137.191 83.484L135 79.797L245 13.5Z" fill="#424242"/>
<path d="M498.5 222C504.299 222 509 226.701 509 232.5L509 243L488 243L488 232.5C488 226.701 492.701 222 498.5 222V222Z" fill="#6D6D6D"/>
<path fill-rule="evenodd" clip-rule="evenodd" d="M262.029 15.251C276.712 21.4509 287.018 35.9877 287.018 52.9323V76.6013L428.964 76.6012L428.992 76.6012L429.018 76.6012L502.129 76.6012C524.701 76.6012 543 94.9049 543 117.484C543 140.063 524.701 158.366 502.129 158.366H287.018V446.697C287.018 447.765 286.623 448.833 285.833 449.662C285.821 449.675 285.809 449.687 285.797 449.7C285.784 449.713 285.771 449.726 285.758 449.74C285.653 449.845 285.544 449.943 285.431 450.035C285.105 450.301 284.748 450.512 284.375 450.668C283.864 450.882 283.304 451 282.716 451C281.63 451 280.545 450.592 279.709 449.775C279.696 449.762 279.683 449.749 279.669 449.735L246.147 416.203L212.62 449.74C211.796 450.564 210.721 450.984 209.641 451C209.62 451 209.599 451 209.578 451C209.429 451 209.283 450.992 209.138 450.978C208.788 450.942 208.45 450.865 208.13 450.75C208.053 450.723 207.978 450.693 207.903 450.662C207.406 450.452 206.941 450.145 206.536 449.74C206.123 449.327 205.812 448.851 205.602 448.344C205.392 447.836 205.276 447.28 205.276 446.697V158.366H63.3023C61.5623 158.366 59.9935 157.318 59.3276 155.71C58.6617 154.102 59.0298 152.251 60.2602 151.02L93.7871 117.484L60.2606 83.9477C59.0301 82.717 58.6621 80.866 59.328 79.2579C59.9939 77.6498 61.5626 76.6013 63.3027 76.6013L136.405 76.6013C136.428 76.6011 136.452 76.6011 136.475 76.6013L205.276 76.6013V52.9323C205.276 36.3287 215.171 22.0369 229.384 15.6354C229.759 6.93681 236.928 0 245.717 0C254.376 0 261.462 6.73334 262.029 15.251ZM245.717 32.7061C252.03 32.7061 257.508 29.1265 260.231 23.8856C270.994 29.1172 278.413 40.1581 278.413 52.9323V76.6013L213.88 76.6013V52.9323C213.88 40.4282 220.989 29.585 231.384 24.2252C234.165 29.2805 239.541 32.7061 245.717 32.7061ZM246.147 111.398L219.965 85.2082L272.329 85.2082L246.147 111.398ZM503.865 149.714C520.878 148.811 534.396 134.727 534.396 117.484C534.396 100.241 520.878 86.1563 503.865 85.254L471.644 117.484L503.865 149.714ZM252.231 117.484L278.413 91.2939V143.673L252.231 117.484ZM287.018 91.2939V143.674L313.2 117.484L287.018 91.2939ZM246.147 123.57L272.329 149.76H219.964L246.147 123.57ZM246.147 184.556L272.329 158.366H219.964L246.147 184.556ZM240.063 117.484L213.88 143.674V91.2939L240.063 117.484ZM205.276 143.674V91.2942L179.093 117.484L205.276 143.674ZM213.88 164.452V216.832L240.063 190.642L213.88 164.452ZM246.147 196.728L215.662 227.221L246.147 257.715L276.631 227.221L246.147 196.728ZM240.063 263.801L213.88 237.611V289.99L240.063 263.801ZM213.88 310.769V363.149L240.063 336.959L213.88 310.769ZM246.147 330.873L215.662 300.38L246.147 269.887L276.631 300.38L246.147 330.873ZM246.147 343.045L215.662 373.538L246.147 404.031L276.631 373.538L246.147 343.045ZM252.231 410.117L278.413 436.307V383.928L252.231 410.117ZM240.063 410.117L213.88 383.928V436.307L240.063 410.117ZM252.231 336.959L278.413 310.769V363.149L252.231 336.959ZM278.413 289.99L252.231 263.801L278.413 237.611V289.99ZM252.231 190.642L278.413 164.452V216.832L252.231 190.642ZM465.56 111.398L491.742 85.2081L439.378 85.2081L465.56 111.398ZM418.605 85.2081L366.24 85.2081L392.422 111.398L418.605 85.2081ZM398.507 117.484L428.991 86.9906L459.476 117.484L428.991 147.977L398.507 117.484ZM386.338 117.484L355.853 86.9906L325.369 117.484L355.853 147.977L386.338 117.484ZM319.285 111.398L345.467 85.2081L293.102 85.2081L319.285 111.398ZM173.009 111.398L199.192 85.2082L146.827 85.2082L173.009 111.398ZM126.053 85.2082L73.6892 85.2082L99.8713 111.398L126.053 85.2082ZM105.956 117.484L136.44 86.9906L166.925 117.484L136.44 147.977L105.956 117.484ZM99.8713 123.57L73.6888 149.76H126.054L99.8713 123.57ZM146.827 149.76L173.009 123.57L199.191 149.76H146.827ZM293.102 149.76L319.285 123.57L345.467 149.76H293.102ZM392.422 123.57L418.605 149.76H366.24L392.422 123.57ZM439.378 149.76L465.56 123.57L491.742 149.76H439.378Z" fill="#FFC700"/>
<path d="M87 742C87 686.772 131.772 642 187 642H287V742C287 797.228 242.228 842 187 842V842C131.772 842 87 797.228 87 742V742Z" fill="#0ACF83"/>
<path d="M87 542C87 486.772 131.772 442 187 442H287V642H187C131.772 642 87 597.228 87 542V542Z" fill="#A259FF"/>
<path d="M287 542C287 486.772 331.772 442 387 442V442C442.228 442 487 486.772 487 542V542C487 597.228 442.228 642 387 642V642C331.772 642 287 597.228 287 542V542Z" fill="#1ABCFE"/>
<rect y="55" width="66" height="125" fill="#424242"/>
<path d="M613 243L382 243L497.5 443L613 243Z" fill="#FF7362"/>
<path d="M546 243L449 243L497.5 327L546 243Z" fill="#424242"/>
</g>
</svg>
