<svg width="32" height="32" viewBox="0 0 32 32" fill="none" xmlns="http://www.w3.org/2000/svg"><mask id="path-1-inside-1" fill="white"><path fill-rule="evenodd" clip-rule="evenodd" d="M9.24382 16.2495C7.58539 14.5911 7.58539 11.9022 9.24382 10.2438C10.9022 8.58539 13.5911 8.58539 15.2495 10.2438L16.0003 10.9946L16.7505 10.2445C18.4089 8.58604 21.0978 8.58604 22.7562 10.2445C24.4146 11.9029 24.4146 14.5917 22.7562 16.2501L15.9998 23.0065L9.99412 17.0008L9.99464 17.0003L9.24382 16.2495Z"/></mask><path d="M9.24382 10.2438L9.95092 10.9509L9.95092 10.9509L9.24382 10.2438ZM9.24382 16.2495L9.95092 15.5424L9.95092 15.5424L9.24382 16.2495ZM15.2495 10.2438L14.5424 10.9509L14.5424 10.9509L15.2495 10.2438ZM16.0003 10.9946L15.2932 11.7018L16.0003 12.4089L16.7074 11.7018L16.0003 10.9946ZM16.7505 10.2445L16.0434 9.53735L16.7505 10.2445ZM22.7562 10.2445L22.0491 10.9516L22.0491 10.9516L22.7562 10.2445ZM22.7562 16.2501L22.0491 15.543L22.0491 15.543L22.7562 16.2501ZM15.9998 23.0065L15.2927 23.7136L15.9998 24.4207L16.7069 23.7136L15.9998 23.0065ZM9.99412 17.0008L9.28717 16.2936L8.57975 17.0007L9.28701 17.708L9.99412 17.0008ZM9.99464 17.0003L10.7016 17.7076L11.409 17.0005L10.7018 16.2932L9.99464 17.0003ZM8.53671 9.53671C6.48776 11.5857 6.48776 14.9077 8.53671 16.9566L9.95092 15.5424C8.68303 14.2745 8.68303 12.2188 9.95092 10.9509L8.53671 9.53671ZM15.9566 9.53671C13.9077 7.48776 10.5857 7.48776 8.53671 9.53671L9.95092 10.9509C11.2188 9.68303 13.2745 9.68303 14.5424 10.9509L15.9566 9.53671ZM16.7074 10.2875L15.9566 9.53671L14.5424 10.9509L15.2932 11.7018L16.7074 10.2875ZM16.0434 9.53735L15.2932 10.2875L16.7074 11.7018L17.4576 10.9516L16.0434 9.53735ZM23.4633 9.53735C21.4143 7.4884 18.0923 7.4884 16.0434 9.53735L17.4576 10.9516C18.7255 9.68367 20.7812 9.68367 22.0491 10.9516L23.4633 9.53735ZM23.4633 16.9572C25.5122 14.9083 25.5122 11.5863 23.4633 9.53735L22.0491 10.9516C23.317 12.2195 23.317 14.2751 22.0491 15.543L23.4633 16.9572ZM16.7069 23.7136L23.4633 16.9572L22.0491 15.543L15.2927 22.2994L16.7069 23.7136ZM9.28701 17.708L15.2927 23.7136L16.7069 22.2994L10.7012 16.2937L9.28701 17.708ZM9.2877 16.2931L9.28717 16.2936L10.7011 17.7081L10.7016 17.7076L9.2877 16.2931ZM8.53671 16.9566L9.28754 17.7074L10.7018 16.2932L9.95092 15.5424L8.53671 16.9566Z" fill="#000" mask="url(#path-1-inside-1)"/></svg>
