<svg width="12" height="12" viewBox="0 0 12 12" fill="none" xmlns="http://www.w3.org/2000/svg"><path fill-rule="evenodd" clip-rule="evenodd" d="M11 6C11 8.76142 8.76142 11 6 11C3.23858 11 1 8.76142 1 6C1 3.23858 3.23858 1 6 1C8.76142 1 11 3.23858 11 6ZM12 6C12 9.31371 9.31371 12 6 12C2.68629 12 0 9.31371 0 6C0 2.68629 2.68629 0 6 0C9.31371 0 12 2.68629 12 6ZM6.21094 7.32673H5.39844V7.27275C5.40412 6.21877 5.71662 5.89775 6.24503 5.57389C6.5831 5.36366 6.8473 5.06536 6.8473 4.64207C6.8473 4.13923 6.45526 3.8182 5.9723 3.8182C5.53764 3.8182 5.10866 4.08241 5.07457 4.68468H4.21094C4.24787 3.66195 5.01491 3.10229 5.9723 3.10229C7.01491 3.10229 7.71378 3.72729 7.71378 4.65059C7.71378 5.28979 7.40128 5.72161 6.89276 6.02843C6.4098 6.32673 6.2223 6.61934 6.21094 7.27275V7.32673ZM6.3956 8.48582C6.3956 8.80116 6.13707 9.054 5.82741 9.054C5.51491 9.054 5.25923 8.80116 5.25923 8.48582C5.25923 8.17616 5.51491 7.92048 5.82741 7.92048C6.13707 7.92048 6.3956 8.17616 6.3956 8.48582Z" fill="#fff"/></svg>
